Normalized EMG Linear Envelopes
nRows=123
nColumns=4

endheader
time	 med_gas_r	  soleus_r	 tib_ant_r	
2.79133	  0.007461	  0.036501	  0.002007	
2.8629	  0.007120	  0.043775	  0.001939	
2.93448	  0.007049	  0.047296	  0.001897	
3.00605	  0.007370	  0.046952	  0.001914	
3.07762	  0.007943	  0.045541	  0.002021	
3.14919	  0.008478	  0.045551	  0.002200	
3.22077	  0.008789	  0.047257	  0.002365	
3.29234	  0.008914	  0.049197	  0.002408	
3.36391	  0.008943	  0.050078	  0.002299	
3.43548	  0.008815	  0.049931	  0.002154	
3.50706	  0.008446	  0.049304	  0.002123	
3.57863	  0.008044	  0.048295	  0.002218	
3.6502	  0.007984	  0.047010	  0.002329	
3.72177	  0.008442	  0.046026	  0.002382	
3.79335	  0.009381	  0.045641	  0.002382	
3.86492	  0.010551	  0.045477	  0.002355	
3.93649	  0.011387	  0.044892	  0.002331	
4.00806	  0.011358	  0.043557	  0.002333	
4.07964	  0.010418	  0.042044	  0.002338	
4.15121	  0.008996	  0.041372	  0.002318	
4.22278	  0.007723	  0.041904	  0.002302	
4.29435	  0.006963	  0.043138	  0.002337	
4.36593	  0.006592	  0.044516	  0.002403	
4.4375	  0.006399	  0.046067	  0.002415	
4.50907	  0.006396	  0.047505	  0.002331	
4.58065	  0.006697	  0.047597	  0.002226	
4.65222	  0.007322	  0.045822	  0.002214	
4.72379	  0.008002	  0.043268	  0.002317	
4.79536	  0.008296	  0.041094	  0.002467	
4.86694	  0.008123	  0.039491	  0.002609	
4.93851	  0.007874	  0.038454	  0.002741	
5.01008	  0.007943	  0.038704	  0.002848	
5.08165	  0.008468	  0.041193	  0.002901	
5.15323	  0.009299	  0.045845	  0.002911	
5.2248	  0.009723	  0.051191	  0.002924	
5.29637	  0.008204	  0.054716	  0.002928	
5.36794	  0.002987	  0.053966	  0.002803	
5.43952	 -0.005339	  0.049582	  0.002557	
5.51109	 -0.008845	  0.048174	  0.002690	
5.58266	  0.012146	  0.061112	  0.004300	
5.65423	  0.083697	  0.098262	  0.008596	
5.72581	  0.217539	  0.158968	  0.015595	
5.79738	  0.388270	  0.228550	  0.023160	
5.86895	  0.539099	  0.288422	  0.028728	
5.94052	  0.627268	  0.332022	  0.032184	
6.0121	  0.659461	  0.367246	  0.035194	
6.08367	  0.671034	  0.402879	  0.038384	
6.15524	  0.690049	  0.440734	  0.041491	
6.22681	  0.727861	  0.481016	  0.044888	
6.29839	  0.776983	  0.525301	  0.048742	
6.36996	  0.817181	  0.575411	  0.052326	
6.44153	  0.831948	  0.632622	  0.055147	
6.5131	  0.811095	  0.691225	  0.056869	
6.58468	  0.758785	  0.734617	  0.056574	
6.65625	  0.703400	  0.747006	  0.054249	
6.72782	  0.667766	  0.728958	  0.051879	
6.7994	  0.647575	  0.698317	  0.051353	
6.87097	  0.638010	  0.677362	  0.052550	
6.94254	  0.647262	  0.679708	  0.054244	
7.01411	  0.677670	  0.701611	  0.055336	
7.08569	  0.716148	  0.719645	  0.055124	
7.15726	  0.742042	  0.709784	  0.053521	
7.22883	  0.741473	  0.675172	  0.051334	
7.3004	  0.720747	  0.643207	  0.050066	
7.37198	  0.703672	  0.636748	  0.050542	
7.44355	  0.706838	  0.652848	  0.051693	
7.51512	  0.722412	  0.668011	  0.051634	
7.58669	  0.733483	  0.666137	  0.049733	
7.65827	  0.729410	  0.653988	  0.047195	
7.72984	  0.704335	  0.647594	  0.046015	
7.80141	  0.664729	  0.655655	  0.047171	
7.87298	  0.629395	  0.676140	  0.049684	
7.94456	  0.609517	  0.699074	  0.051833	
8.01613	  0.604951	  0.711155	  0.052898	
8.0877	  0.615585	  0.703769	  0.053153	
8.15927	  0.640378	  0.681030	  0.053001	
8.23085	  0.674224	  0.659244	  0.052948	
8.30242	  0.711132	  0.652878	  0.053520	
8.37399	  0.739587	  0.659672	  0.054486	
8.44556	  0.741024	  0.664468	  0.055005	
8.51714	  0.709915	  0.657950	  0.055222	
8.58871	  0.668473	  0.649314	  0.056682	
8.66028	  0.650646	  0.658469	  0.059639	
8.73185	  0.678078	  0.696860	  0.061583	
8.80343	  0.746867	  0.758081	  0.060438	
8.875	  0.823949	  0.816729	  0.057255	
8.94657	  0.865778	  0.838481	  0.054478	
9.01815	  0.855024	  0.812601	  0.053611	
9.08972	  0.809776	  0.764365	  0.054625	
9.16129	  0.750063	  0.720104	  0.055726	
9.23286	  0.674846	  0.683687	  0.054293	
9.30444	  0.583656	  0.650368	  0.049415	
9.37601	  0.498395	  0.616929	  0.043155	
9.44758	  0.446441	  0.582677	  0.039280	
9.51915	  0.440803	  0.556130	  0.040527	
9.59073	  0.484194	  0.554441	  0.046159	
9.6623	  0.563875	  0.586956	  0.052264	
9.73387	  0.642683	  0.636707	  0.055256	
9.80544	  0.685666	  0.669443	  0.055097	
9.87702	  0.687955	  0.670928	  0.054388	
9.94859	  0.664924	  0.657930	  0.054788	
10.0202	  0.630839	  0.648978	  0.055565	
10.0917	  0.589625	  0.644567	  0.054891	
10.1633	  0.538188	  0.635167	  0.051535	
10.2349	  0.473526	  0.616601	  0.045794	
10.3065	  0.399632	  0.591139	  0.039099	
10.378	  0.329718	  0.559076	  0.032958	
10.4496	  0.273887	  0.522997	  0.028401	
10.5212	  0.231295	  0.491684	  0.025486	
10.5927	  0.197857	  0.468250	  0.023926	
10.6643	  0.169098	  0.445717	  0.025130	
10.7359	  0.139873	  0.416891	  0.031686	
10.8075	  0.109454	  0.381528	  0.044369	
10.879	  0.081539	  0.347599	  0.060604	
10.9506	  0.059725	  0.324342	  0.075772	
11.0222	  0.045917	  0.310485	  0.087211	
11.0937	  0.039721	  0.296143	  0.094562	
11.1653	  0.038166	  0.276106	  0.094790	
11.2369	  0.037526	  0.253799	  0.085039	
11.3085	  0.035917	  0.235225	  0.071484	
11.38	  0.034005	  0.222863	  0.065830	
11.4516	  0.033064	  0.212964	  0.073393	
11.5232	  0.033140	  0.201119	  0.089922	
